<svg width="970" height="970" viewBox="0 0 970 970" fill="none" xmlns="http://www.w3.org/2000/svg">
<rect width="970" height="970" fill="#FFC560"/>
<path d="M629.893 722.107V696.903C643.78 691.812 653.739 678.486 653.739 662.848C653.739 645.233 641.135 630.529 624.478 627.252C615.158 615.646 580.926 572.11 572.928 548.672C564.961 525.367 553.999 448.329 550.599 420.439C564.378 415.286 574.227 402.014 574.227 386.461C574.227 369.165 562.067 354.679 545.846 351.06C574.165 331.569 592.767 298.938 592.767 262.026C592.775 202.463 544.329 154 484.796 154C425.264 154 376.825 202.463 376.825 262.034C376.825 298.946 395.435 331.576 423.739 351.068C407.525 354.687 395.35 369.173 395.35 386.469C395.35 402.029 405.207 415.293 418.993 420.446C415.578 448.336 404.623 525.367 396.664 548.68C388.667 572.118 354.435 615.654 345.114 627.259C328.457 630.537 315.853 645.248 315.853 662.856C315.853 678.494 325.804 691.82 339.699 696.911V722.115C312.648 726.848 292 750.465 292 778.868V805.7C292 811.195 296.45 815.64 301.943 815.64H667.665C673.158 815.64 677.6 811.195 677.6 805.7V778.868C677.592 750.457 656.952 726.848 629.893 722.107ZM359.577 699.137H379.564V721.181H359.577V699.137ZM387.507 699.137H610.023V721.181H387.507V699.137ZM537.965 370.06C547.005 370.06 554.357 377.416 554.357 386.461C554.357 395.506 547.005 402.862 537.965 402.862H519.137C513.644 402.862 509.202 407.315 509.202 412.802C509.202 418.29 513.644 422.75 519.137 422.75H530.862C534.316 451.108 545.449 529.71 554.124 555.094C561.149 575.675 583.976 607.395 598.656 626.551H577.767C572.29 626.551 567.832 630.996 567.832 636.491C567.832 641.979 572.29 646.431 577.767 646.431H617.476C626.517 646.431 633.877 653.78 633.877 662.832C633.877 671.877 626.517 679.233 617.476 679.233H370.858C366.439 675.147 363.654 669.316 363.654 662.832C363.654 656.348 366.439 650.526 370.858 646.431H402.359C407.852 646.431 412.302 641.979 412.302 636.491C412.302 630.996 407.852 626.551 402.359 626.551H397.287C411.462 608.321 436.482 574.375 443.718 553.164C452.136 528.496 463.09 451.707 466.622 422.75H472.924C478.417 422.75 482.859 418.298 482.859 412.802C482.859 407.307 478.409 402.862 472.924 402.862H450.362C445.943 398.783 443.158 392.945 443.158 386.461C443.158 379.977 445.943 374.147 450.362 370.06H537.965ZM572.897 262.034C572.897 310.63 533.367 350.172 484.796 350.172C482.696 350.172 480.634 350.071 478.572 349.931C442.893 336.301 417.873 301.6 417.88 262.034C417.88 222.468 442.885 187.759 478.58 174.129C480.642 173.989 482.696 173.888 484.796 173.888C533.367 173.888 572.897 213.431 572.897 262.034ZM396.695 262.034C396.695 225.706 418.775 194.446 450.206 180.972C425.668 199.793 409.937 229.38 409.937 262.034C409.937 294.68 425.66 324.259 450.199 343.089C418.775 329.607 396.695 298.354 396.695 262.034ZM431.628 370.06H440.077C437.011 374.801 435.214 380.421 435.214 386.461C435.214 392.51 437.004 398.137 440.077 402.862H431.628C422.587 402.862 415.235 395.506 415.235 386.461C415.235 377.416 422.58 370.06 431.628 370.06ZM415.469 555.102C424.136 529.71 435.284 451.115 438.739 422.758H458.609C454.975 452.33 444.185 527.219 436.202 550.603C428.734 572.499 399.792 610.571 387.181 626.559H370.936C385.609 607.402 408.443 575.683 415.469 555.102ZM352.116 646.447H360.557C357.5 651.187 355.703 656.808 355.703 662.848C355.703 668.888 357.492 674.516 360.557 679.249H352.116C343.076 679.249 335.724 671.893 335.724 662.848C335.724 653.795 343.076 646.447 352.116 646.447ZM311.862 778.861C311.862 758.482 328.076 741.871 348.273 741.139C338.182 750.581 331.849 763.985 331.849 778.861V795.752H311.87V778.861H311.862ZM657.722 795.752H339.8V778.861C339.8 762.74 348.584 748.666 361.592 741.077H619.958C640.785 741.077 657.722 758.031 657.722 778.861V795.752Z" fill="white"/>
<path d="M468.45 636.499C468.45 641.987 472.908 646.439 478.393 646.439H541.987C547.487 646.439 551.922 641.987 551.922 636.499C551.922 631.003 547.487 626.559 541.987 626.559H478.393C472.908 626.559 468.45 631.003 468.45 636.499Z" fill="white"/>
</svg>
