<svg width="970" height="970" viewBox="0 0 970 970" fill="none" xmlns="http://www.w3.org/2000/svg">
<rect width="970" height="970" fill="#E34132"/>
<path d="M648.553 738.322V712.129C662.98 706.813 673.372 692.996 673.372 676.712C673.372 657.89 659.498 642.291 641.41 639.481C637.164 622.924 626.484 582.238 618.203 558.014C611.301 537.869 617.004 411.433 622.371 332.815C637.141 327.685 647.797 313.682 647.797 297.195V296.643H655.844C661.313 296.643 665.855 292.4 666.174 286.936L674.455 145.944C674.603 143.08 673.582 140.301 671.65 138.246C669.711 136.199 667.008 135 664.125 135H595.519C590.549 135 586.264 138.573 585.353 143.43L578.669 179.54H535.621L528.766 143.391C527.863 138.557 523.617 135 518.624 135H450.025C445.039 135 440.786 138.557 439.843 143.391L432.988 179.54H390.003L383.28 143.43C382.377 138.581 378.115 135 373.106 135H304.515C301.649 135 298.93 136.191 296.998 138.246C295.012 140.309 293.999 143.088 294.186 145.944L302.467 286.936C302.794 292.4 307.273 296.643 312.749 296.643H322.736V297.195C322.736 313.542 333.253 327.444 347.828 332.675C353.203 411.916 358.858 537.985 351.996 558.022C343.707 582.222 333.035 622.924 328.805 639.481C310.709 642.299 296.842 657.882 296.842 676.704C296.842 692.996 307.226 706.813 321.653 712.137V738.322C293.524 743.265 272 767.777 272 797.317V825.215C272 830.944 276.643 835.552 282.345 835.552H687.854C693.564 835.552 698.214 830.944 698.214 825.215V797.317C698.214 767.785 676.706 743.257 648.553 738.322ZM342.351 714.433H365.324V737.365H342.351V714.433ZM373.605 714.433H627.855V737.365H373.605V714.433ZM619.917 639.006H594.303C588.617 639.006 583.951 643.622 583.951 649.312C583.951 655.057 588.609 659.657 594.303 659.657H633.215C633.23 659.657 633.23 659.657 633.253 659.657H633.269H635.614C645.055 659.657 652.666 667.324 652.666 676.704C652.666 686.138 645.04 693.736 635.614 693.736H358.212C352.471 689.509 348.763 682.768 348.763 675.108C348.763 669.146 351.037 663.752 354.714 659.634H494.498C500.192 659.634 504.812 655.026 504.812 649.281C504.812 643.607 500.192 638.998 494.498 638.998H380.881C385.5 621.22 395.526 583.413 403.129 561.088C412.345 534.226 402.919 378.756 400.036 334.924H403.472H601.501C598.619 377.658 588.835 536.024 598.619 564.708C605.794 585.631 615.064 620.317 619.917 639.006ZM627.099 297.203C627.099 306.583 619.473 314.242 610.047 314.242H403.48H380.974C377.134 310.887 374.688 305.999 374.688 300.511V296.635H627.092V297.203H627.099ZM604.127 155.698H618.686L611.535 191.901H597.396C597.419 191.854 597.435 191.808 597.451 191.753L604.127 155.698ZM458.578 155.698H473.753L466.602 191.901H451.715C451.723 191.87 451.731 191.839 451.731 191.792L458.578 155.698ZM371.237 191.761C372.117 196.673 376.417 200.191 381.379 200.191H441.542C441.76 200.191 441.931 200.175 442.134 200.175H469.991C471.954 200.175 473.644 198.79 474.041 196.821L482.182 155.705H510.031L516.894 191.808C517.806 196.688 522.098 200.199 527.045 200.199H587.261C587.44 200.199 587.612 200.183 587.814 200.183H614.908C616.871 200.183 618.562 198.798 618.951 196.828L627.068 155.713H653.141L646.123 276.007H353.413L346.324 155.713H364.506L371.237 191.761ZM315.492 155.698H338.083L345.125 275.992H322.542L315.492 155.698ZM343.45 296.643H366.415V300.519C366.415 305.524 367.856 310.249 370.271 314.25H360.51C351.092 314.25 343.458 306.583 343.458 297.211V296.643H343.45ZM371.58 564.739C381.255 536.343 371.689 379.822 368.713 334.94H391.756C396.624 408.242 402.88 536.257 395.285 558.434C387.292 581.942 376.698 622.177 372.343 639.006H350.29C355.158 620.317 364.436 585.647 371.58 564.739ZM334.616 659.657H336.961C336.969 659.657 336.969 659.657 336.976 659.657C336.984 659.657 336.992 659.657 337 659.657H344.579C341.985 664.25 340.474 669.496 340.474 675.124C340.474 682.114 342.819 688.551 346.652 693.751H334.616C325.182 693.751 317.548 686.138 317.548 676.712C317.54 667.332 325.182 659.657 334.616 659.657ZM292.706 797.325C292.706 775.95 309.867 758.568 331.126 758.063C321.583 767.785 315.671 781.049 315.671 795.698V814.839H292.706V797.325V797.325ZM677.516 814.855H323.952V795.706C323.952 780.052 331.921 766.251 343.987 758.063H638.223C659.887 758.063 677.532 775.662 677.532 797.325L677.516 814.855Z" fill="white"/>
</svg>
