<svg width="970" height="970" viewBox="0 0 970 970" fill="none" xmlns="http://www.w3.org/2000/svg">
<rect width="970" height="970" fill="#FFC560"/>
<path d="M610.016 754.863V733.091C622.028 728.709 630.628 717.204 630.628 703.707C630.628 689.291 620.813 677.156 607.492 673.52C603.994 661.782 595.036 632.016 588.266 612.214C582.065 594.108 571.245 517.833 565.574 473.908C577.446 469.447 585.953 458.013 585.953 444.601V442.468C597.957 438.078 606.573 426.573 606.573 413.076C606.573 399.578 597.957 388.081 585.953 383.699V381.037C585.953 366.955 576.605 355.03 563.798 351.099C564.491 343.206 565.613 332.714 566.898 327.514C568.612 320.578 573.863 310.638 578.498 301.866C581.006 297.117 583.382 292.634 585.166 288.703C585.758 287.372 586.506 285.893 587.308 284.274C592.987 272.823 602.499 253.667 597.334 230.471C596.469 226.548 592.971 223.753 588.944 223.753H570.824C558.337 201.615 538.161 185.674 514.511 178.583C516.287 174.636 517.253 170.332 517.253 165.895C517.253 148.863 503.379 135 486.342 135C469.297 135 455.431 148.856 455.431 165.895C455.431 170.604 456.226 174.901 457.721 178.715C434.219 185.892 414.175 201.802 401.774 223.862L380.297 223.885C375.934 223.885 372.281 227.147 371.774 231.467C368.464 259.964 379.167 279.72 384.308 289.224L386.194 292.657C391.67 302.691 399.951 317.854 402.335 327.498C403.612 332.69 404.742 343.191 405.435 351.076C392.62 355.007 383.272 366.948 383.272 381.013V385.162C373.099 390.339 366.088 400.894 366.088 413.06C366.088 425.234 373.091 435.782 383.272 440.958V444.577C383.272 457.982 391.771 469.416 403.651 473.876C397.98 517.802 387.16 594.061 380.967 612.198C374.197 631.993 365.231 661.767 361.725 673.497C348.42 677.124 338.605 689.26 338.605 703.683C338.605 717.189 347.212 728.686 359.225 733.076V754.84C335.839 758.927 318 779.313 318 803.825V826.99C318 831.723 321.84 835.568 326.585 835.568H642.672C647.416 835.568 651.256 831.73 651.256 826.99V803.825C651.241 779.328 633.394 758.95 610.016 754.863ZM376.386 735.03H393.664V754.077H376.386V735.03V735.03ZM400.543 735.03H592.855V754.077H400.543V735.03ZM554.613 458.76H541.799C537.047 458.76 533.207 462.605 533.207 467.346C533.207 472.086 537.039 475.916 541.799 475.916H548.537C552.089 503.199 564.398 595.486 572.024 617.756C577.734 634.476 585.088 658.529 589.24 672.407H568.713C563.985 672.407 560.129 676.237 560.129 680.978C560.129 685.702 563.977 689.556 568.713 689.556H599.281C607.095 689.556 613.459 695.915 613.459 703.715C613.459 711.53 607.11 717.889 599.281 717.889H386.162C382.338 714.355 379.923 709.319 379.923 703.715C379.923 698.118 382.338 693.082 386.162 689.556H432.092C436.836 689.556 440.677 685.71 440.677 680.978C440.677 676.245 436.836 672.407 432.092 672.407H403.908C407.99 658.793 415.671 633.534 421.63 616.098C429.039 594.435 441.152 503.892 444.782 475.924H481.224C485.96 475.924 489.801 472.094 489.801 467.353C489.801 462.613 485.96 458.768 481.224 458.768H430.807C426.982 455.234 424.567 450.198 424.567 444.577V444.406H568.791V444.601C568.799 452.408 562.45 458.76 554.613 458.76ZM575.241 427.243H558.968H415.017C411.098 423.701 408.629 418.61 408.629 412.928C408.629 407.401 410.966 402.435 414.705 398.909H575.234C583.047 398.909 589.419 405.26 589.419 413.076C589.427 420.891 583.055 427.243 575.241 427.243ZM571.962 276.638C571.058 278.451 570.24 280.109 569.562 281.596C567.989 285.06 565.73 289.326 563.338 293.84C558.244 303.485 552.463 314.421 550.243 323.396C548.615 329.974 547.384 341.798 546.691 349.714H514.736C510.008 349.714 506.144 353.559 506.144 358.292C506.144 363.032 510 366.878 514.736 366.878H554.606C562.427 366.878 568.783 373.229 568.783 381.044V381.776H425.806V380.904C425.806 375.378 428.143 370.404 431.882 366.878H454.629C459.365 366.878 463.206 363.032 463.206 358.292C463.206 353.559 459.365 349.714 454.629 349.714H447.898C447.213 341.969 446.021 330.682 444.502 324.486C441.752 313.308 433.339 297.919 427.2 286.687L425.385 283.363C423.064 279.066 419.769 272.964 417.268 265.125H434.959C438.8 265.125 442.165 262.58 443.216 258.89L448.319 240.987L461.772 240.979L466.875 258.898C467.919 262.58 471.292 265.125 475.124 265.125H494.88C498.712 265.125 502.093 262.58 503.129 258.898L508.24 240.948L521.693 240.94L526.78 258.898C527.831 262.58 531.189 265.125 535.029 265.125H554.8C558.633 265.125 562.006 262.58 563.058 258.898L568.152 240.909L581.598 240.901C582.572 255.247 576.535 267.421 571.962 276.638ZM553.85 228.774C553.686 229.163 553.523 229.568 553.383 229.988L548.288 247.969H541.511L536.416 230.019C535.372 226.33 532.007 223.784 528.166 223.784C528.166 223.784 528.166 223.784 528.151 223.784L501.743 223.808C497.894 223.808 494.537 226.353 493.485 230.027L488.383 247.961H481.59L476.488 230.043C475.444 226.361 472.078 223.815 468.238 223.815L441.814 223.839C437.982 223.839 434.616 226.384 433.565 230.066L428.47 247.961H426.826C430.721 215.813 456.148 199.849 474.587 192.438C478.427 191.878 482.353 191.582 486.334 191.582C514.137 191.59 539.275 205.663 553.85 228.774ZM500.083 165.902C500.091 169.312 498.759 172.511 496.508 175.018C493.15 174.675 489.769 174.434 486.334 174.434C486.233 174.434 486.147 174.442 486.046 174.442C482.556 165.038 483.795 157.301 485.641 152.218C485.867 152.21 486.108 152.156 486.334 152.156C493.914 152.164 500.083 158.321 500.083 165.902ZM472.585 165.902C472.585 161.613 474.602 157.83 477.695 155.308C476.612 160.633 476.519 167.226 478.902 174.737C477.687 174.839 476.488 174.986 475.288 175.119C473.527 172.931 472.585 169.872 472.585 165.902ZM441.853 205.056C431.734 214.405 423.36 227.007 420.501 243.813L417.058 231.685C423.274 220.803 431.827 211.774 441.853 205.056ZM401.252 284.453L399.406 281.059C395.292 273.462 388.04 260.081 388.32 241.026L401.852 241.018L406.946 258.89C407.406 260.47 408.286 261.817 409.431 262.86C412.173 273.368 416.442 281.277 419.34 286.632L421.163 289.972C426.787 300.262 435.278 315.807 437.826 326.121C439.205 331.694 440.319 342.202 440.988 349.698H422.526C421.825 341.782 420.594 329.958 418.966 323.388C416.084 311.596 407.515 295.911 401.252 284.453ZM414.619 366.862H423.056C420.462 370.925 418.935 375.728 418.935 380.897V381.768H400.434V381.037C400.434 373.222 406.798 366.862 414.619 366.862ZM397.435 398.909H405.871C403.277 402.964 401.75 407.775 401.75 412.928C401.75 418.205 403.339 423.125 406.05 427.243H397.435C389.613 427.243 383.257 420.891 383.257 413.076C383.257 405.268 389.613 398.909 397.435 398.909ZM400.434 444.398H417.72V444.593C417.72 449.808 419.27 454.666 421.919 458.752H414.619C406.798 458.752 400.442 452.4 400.442 444.593V444.398H400.434ZM397.209 617.756C404.827 595.494 417.143 503.207 420.688 475.916H437.865C434.118 504.584 422.176 593.299 415.141 613.872C408.839 632.289 400.636 659.361 396.749 672.415H379.993C384.145 658.544 391.483 634.492 397.209 617.756ZM369.951 689.54H377.259C374.625 693.611 373.052 698.484 373.052 703.699C373.052 708.922 374.61 713.787 377.251 717.874H369.951C362.13 717.874 355.774 711.514 355.774 703.699C355.774 695.907 362.13 689.54 369.951 689.54ZM335.154 803.84C335.154 786.241 349.168 771.902 366.633 771.272C357.908 779.437 352.432 790.997 352.432 803.84V818.443H335.154V803.84ZM634.079 818.443H359.303V803.84C359.303 789.93 366.898 777.756 378.139 771.233H601.439C619.434 771.233 634.071 785.859 634.071 803.84V818.443H634.079Z" fill="white"/>
</svg>
